<svg version="1.1" xmlns="http://www.w3.org/2000/svg" viewBox="0 0 390.422539256262 448.93938425524675" width="390.422539256262" height="448.93938425524675">
  <!-- svg-source:excalidraw -->
  
  <defs>
    <style>
      @font-face {
        font-family: "Virgil";
        src: url("https://excalidraw.com/Virgil.woff2");
      }
      @font-face {
        font-family: "Cascadia";
        src: url("https://excalidraw.com/Cascadia.woff2");
      }
    </style>
  </defs>
  <g stroke-linecap="round" transform="translate(10 10) rotate(0 172.11739730031042 214.46969212762338)"><path d="M1.53 -2.19 L345.09 0.58 L342.75 425.31 L-3.64 430.38" stroke="none" stroke-width="0" fill="#c77dff"></path><path d="M-0.55 -1.13 C113.48 -4.69, 228.98 -2.92, 342.72 1.99 M-0.06 0.06 C136.34 0.63, 273.79 -0.35, 344.68 -0.94 M343.57 0.01 C345 116.59, 343.33 233.42, 343.86 429.19 M344.07 -0.71 C349.62 106.19, 349.54 213.25, 344.26 429.04 M344.47 429.88 C235.05 428.93, 121.27 431.3, -1.82 428.81 M343.66 429.83 C238.66 427.3, 133.78 426.86, -1.12 428.82 M1.08 428.03 C3.99 310.43, 1.28 190.19, 1.96 0.79 M-0.79 429.17 C-4.99 333.35, -3.92 238.79, 0.53 -0.65" stroke="#000000" stroke-width="1" fill="none"></path></g><g transform="translate(203.46199370574595 35.35606826959645) rotate(0 51.32687307271232 175.35737411394553)" stroke="none"><path fill="#000000" d="M 3.36,-1.16 Q 3.36,-1.16 5.18,0.51 7.00,2.19 14.94,11.24 22.87,20.28 28.34,27.10 33.81,33.93 41.20,47.84 48.59,61.75 53.83,74.96 59.07,88.16 61.84,99.12 64.60,110.08 65.78,119.41 66.96,128.74 66.93,135.74 66.90,142.73 65.29,150.75 63.68,158.77 61.13,165.86 58.58,172.94 53.78,181.63 48.98,190.32 44.53,196.04 40.08,201.75 36.61,205.82 33.15,209.89 31.16,212.27 29.17,214.65 28.15,215.97 27.13,217.29 28.49,217.37 29.84,217.45 31.15,217.49 32.47,217.54 33.65,217.54 34.83,217.55 36.03,218.46 37.22,219.38 37.18,221.15 37.14,222.92 34.87,224.32 32.60,225.72 26.77,226.81 20.93,227.90 16.44,228.62 11.96,229.34 7.87,229.63 3.79,229.93 -0.58,230.03 -4.96,230.14 -7.33,230.17 -9.71,230.20 -11.51,230.28 -13.32,230.35 -13.82,230.45 -14.31,230.54 -14.52,230.52 -14.73,230.50 -14.93,230.42 -15.12,230.35 -15.30,230.24 -15.47,230.12 -15.61,229.97 -15.75,229.81 -15.85,229.63 -15.95,229.44 -16.01,229.24 -16.06,229.04 -16.06,228.83 -16.06,228.62 -16.02,228.42 -15.97,228.21 -15.88,228.03 -15.78,227.84 -15.64,227.68 -15.51,227.52 -15.34,227.40 -15.17,227.28 -14.97,227.20 -14.78,227.13 -14.57,227.10 -14.36,227.07 -10.92,228.22 -7.47,229.37 0.22,232.14 7.93,234.91 18.86,239.41 29.78,243.91 41.46,247.45 53.14,250.99 67.64,256.16 82.14,261.32 91.16,264.17 100.18,267.02 105.37,268.90 110.56,270.79 113.02,271.60 115.48,272.40 116.83,273.47 118.19,274.53 118.73,276.24 119.28,277.95 117.84,279.50 116.41,281.05 111.74,284.28 107.07,287.52 100.62,291.83 94.18,296.13 81.41,304.24 68.65,312.35 58.99,318.11 49.34,323.87 42.11,328.60 34.87,333.34 30.23,336.66 25.58,339.98 22.57,342.37 19.56,344.75 18.08,346.37 16.59,347.98 14.66,349.82 12.72,351.66 12.50,351.76 12.29,351.86 12.05,351.89 11.81,351.91 11.57,351.86 11.34,351.81 11.13,351.69 10.93,351.56 10.77,351.38 10.62,351.20 10.53,350.97 10.44,350.75 10.42,350.51 10.41,350.27 10.48,350.04 10.54,349.81 10.67,349.61 10.81,349.41 11.00,349.26 11.19,349.12 11.42,349.04 11.65,348.97 11.89,348.97 12.13,348.96 12.35,349.04 12.58,349.12 12.77,349.26 12.96,349.41 13.10,349.61 13.23,349.81 13.30,350.04 13.36,350.27 13.35,350.51 13.34,350.75 13.25,350.97 13.16,351.19 13.00,351.38 12.85,351.56 12.64,351.68 12.44,351.81 12.20,351.86 11.97,351.91 11.73,351.89 11.49,351.86 11.27,351.76 11.05,351.66 10.88,351.49 10.71,351.33 10.59,351.12 10.48,350.90 10.44,350.67 10.40,350.43 10.44,350.19 10.48,349.96 10.59,349.74 10.71,349.53 10.88,349.37 11.05,349.20 11.05,349.20 11.05,349.20 12.83,347.68 14.61,346.15 16.24,344.39 17.86,342.63 20.92,340.19 23.97,337.74 28.65,334.37 33.33,330.99 40.60,326.20 47.86,321.40 57.46,315.63 67.05,309.85 79.75,301.71 92.45,293.57 98.82,289.21 105.18,284.85 109.60,281.67 114.01,278.50 115.01,277.63 116.02,276.75 115.29,275.81 114.55,274.88 112.10,274.09 109.65,273.31 104.51,271.45 99.37,269.60 90.30,266.75 81.23,263.90 66.78,258.77 52.34,253.64 40.53,250.08 28.72,246.52 17.84,242.08 6.96,237.64 -0.70,234.93 -8.36,232.23 -11.34,231.38 -14.31,230.54 -14.52,230.52 -14.73,230.50 -14.93,230.42 -15.12,230.35 -15.30,230.24 -15.47,230.12 -15.61,229.97 -15.75,229.81 -15.85,229.63 -15.95,229.44 -16.01,229.24 -16.06,229.04 -16.06,228.83 -16.06,228.62 -16.02,228.42 -15.97,228.21 -15.88,228.03 -15.78,227.84 -15.64,227.68 -15.51,227.52 -15.34,227.40 -15.17,227.28 -14.97,227.20 -14.78,227.13 -14.57,227.10 -14.36,227.07 -13.86,227.14 -13.36,227.22 -11.57,227.24 -9.78,227.26 -7.42,227.17 -5.06,227.08 -0.77,226.90 3.52,226.72 7.44,226.34 11.35,225.96 15.78,225.09 20.21,224.23 25.45,223.14 30.69,222.05 32.47,221.80 34.26,221.54 33.19,221.43 32.12,221.33 30.62,221.12 29.12,220.90 27.35,220.25 25.58,219.61 25.17,218.31 24.75,217.00 25.95,214.98 27.15,212.96 29.14,210.57 31.14,208.19 34.57,204.16 38.00,200.13 42.33,194.58 46.67,189.03 51.38,180.54 56.09,172.04 58.59,165.14 61.08,158.24 62.66,150.48 64.23,142.71 64.27,135.89 64.30,129.07 63.14,119.91 61.99,110.74 59.26,99.95 56.54,89.17 51.34,76.11 46.14,63.04 38.88,49.37 31.61,35.69 26.16,28.94 20.71,22.19 12.85,13.30 5.00,4.41 3.14,2.79 1.27,1.16 1.15,1.02 1.02,0.87 0.94,0.71 0.85,0.54 0.81,0.36 0.76,0.17 0.76,-0.00 0.77,-0.19 0.81,-0.38 0.86,-0.56 0.95,-0.72 1.03,-0.89 1.16,-1.03 1.29,-1.17 1.44,-1.28 1.60,-1.38 1.77,-1.45 1.95,-1.51 2.14,-1.54 2.32,-1.56 2.51,-1.53 2.70,-1.51 2.87,-1.44 3.05,-1.37 3.20,-1.27 3.36,-1.16 3.36,-1.16 L 3.36,-1.16 Z"></path></g><g stroke-linecap="round" transform="translate(125.2718775122986 34.172361472219166) rotate(0 127.57533087198169 48.86807478055013)"><path d="M0.6 -0.57 L254.55 1.63 L256.19 98.03 L-0.73 99.09" stroke="none" stroke-width="0" fill="#ffffff"></path><path d="M-0.33 -0.58 C75.66 -0.26, 152.87 -1.32, 253.97 -1.08 M0.13 0.76 C82.11 1.23, 163.72 1.36, 255.32 -0.61 M254.09 0.38 C256.39 25.07, 254.38 52.69, 257.02 96.79 M255.01 0.1 C254.09 28.11, 254.2 54.68, 255.76 97.58 M255.73 98.05 C171.16 95.64, 89.13 96.55, 0.68 96.64 M255.01 97.75 C192.68 96.91, 129.44 97.29, -0.7 98.51 M1.9 96.92 C-0.05 57.95, -0.53 20, -1.16 1.42 M-0.4 97.81 C-0.25 71.79, 0.44 46.38, -0.14 0.19" stroke="#000000" stroke-width="1" fill="none"></path></g><g stroke-linecap="round"><g transform="translate(211.20992112647207 284.0878860129835) rotate(180 -22.382104421095505 24.51503703647211)" fill-rule="evenodd"><path d="M1.78 -1.01 L-56.39 -0.17 L-59.49 -13.5 L-58.32 -27.87 L-53.83 -32.23 L-49.31 -39 L-38.05 -43.04 L-14.03 -46.35 L24 -48.56 L34.37 -45.38 L41.84 -39.4 L49.42 -34.39 L50.93 -27.1 L52.78 -12.22 L52.23 31.79 L49.06 41.78 L43.3 48.36 L35.74 50.86 L24.06 52.81 L-3.28 51.39 L-30.63 54.48 L-38.85 57.42 L-46.79 63.32 L-52.39 66.37 L-56.96 73.54 L-57.03 95.45 L-57.61 97.37 L-75.08 96.08 L-89.23 90.1 L-90.03 82.1 L-95.08 76.75 L-96.16 50.08 L-94.57 28.45 L-89.31 19.74 L-83.47 13.4 L-78.55 9.58 L-66.45 9.51 L-1.29 7.65 L1.62 7.55 L-0.79 1.2" stroke="none" stroke-width="0" fill="#fab005" fill-rule="evenodd"></path><path d="M-0.85 -0.19 C-9.39 -0.27, -42.56 -1.15, -52.25 -1.51 C-61.94 -1.87, -57.91 1.71, -59 -2.37 C-60.1 -6.44, -60.57 -19.71, -58.8 -25.98 C-57.04 -32.25, -53.24 -36.53, -48.44 -39.97 C-43.64 -43.42, -37.81 -45.51, -30 -46.65 C-22.19 -47.78, -10.94 -46.77, -1.58 -46.79 C7.78 -46.81, 18.98 -47.89, 26.15 -46.74 C33.33 -45.59, 37.36 -43.43, 41.48 -39.89 C45.59 -36.34, 48.91 -32.93, 50.83 -25.48 C52.74 -18.03, 52.78 -4.94, 52.94 4.8 C53.1 14.53, 53.45 25.67, 51.78 32.93 C50.12 40.18, 47.51 45.21, 42.93 48.33 C38.36 51.45, 32.13 50.91, 24.34 51.66 C16.54 52.41, 5.37 52.64, -3.84 52.83 C-13.04 53.01, -23.55 51.31, -30.89 52.78 C-38.23 54.25, -43.65 58.01, -47.9 61.65 C-52.15 65.28, -54.61 69.82, -56.37 74.58 C-58.14 79.33, -58.16 86.71, -58.51 90.18 C-58.87 93.66, -55.86 94.43, -58.52 95.43 C-61.17 96.44, -69.62 97.55, -74.43 96.23 C-79.24 94.9, -83.9 91.08, -87.39 87.51 C-90.89 83.94, -93.64 81.35, -95.41 74.8 C-97.18 68.25, -98.17 56.11, -98.02 48.21 C-97.86 40.32, -96.84 33.15, -94.48 27.44 C-92.11 21.74, -88.69 17.34, -83.82 13.97 C-78.95 10.61, -74.35 8.57, -65.27 7.26 C-56.2 5.95, -39.01 6.07, -29.36 6.11 C-19.71 6.14, -12.44 7.3, -7.37 7.47 C-2.3 7.64, -0.01 8.18, 1.04 7.12 C2.09 6.06, -0.77 2.34, -1.06 1.13 M0.91 -1.33 C-7.19 -1.2, -39.92 0, -50.07 -0.47 C-60.21 -0.93, -58.46 -0.05, -59.95 -4.12 C-61.43 -8.19, -60.69 -18.99, -58.99 -24.87 C-57.3 -30.75, -54.76 -35.59, -49.79 -39.41 C-44.82 -43.22, -37.27 -46.39, -29.17 -47.76 C-21.08 -49.12, -10.34 -47.76, -1.22 -47.6 C7.9 -47.44, 18.17 -47.94, 25.55 -46.79 C32.93 -45.64, 38.83 -44.25, 43.07 -40.72 C47.31 -37.18, 49.29 -33.3, 50.99 -25.57 C52.69 -17.83, 53.37 -4.02, 53.25 5.7 C53.14 15.41, 51.95 25.7, 50.32 32.72 C48.68 39.75, 47.94 44.79, 43.46 47.83 C38.98 50.86, 31.22 50.1, 23.46 50.92 C15.71 51.75, 5.83 52.32, -3.08 52.78 C-12 53.25, -22.88 52.12, -30.04 53.72 C-37.19 55.33, -41.39 58.93, -46.02 62.4 C-50.64 65.87, -56.01 69.82, -57.79 74.55 C-59.57 79.28, -56.73 87.02, -56.7 90.79 C-56.66 94.56, -54.97 96.46, -57.59 97.19 C-60.21 97.92, -67.5 96.49, -72.43 95.17 C-77.36 93.85, -83.29 92.84, -87.18 89.29 C-91.07 85.74, -94.2 80.37, -95.78 73.89 C-97.36 67.41, -97.14 58.09, -96.66 50.39 C-96.18 42.7, -94.67 33.77, -92.88 27.71 C-91.08 21.65, -90.23 17.55, -85.91 14.04 C-81.58 10.54, -76.09 7.75, -66.94 6.68 C-57.8 5.6, -40.92 7.19, -31.05 7.59 C-21.17 8, -12.81 9.33, -7.71 9.11 C-2.61 8.88, -2.02 7.79, -0.45 6.25 C1.11 4.71, 1.78 0.64, 1.68 -0.13" stroke="#000000" stroke-width="1" fill="none"></path></g></g><g stroke-linecap="round"><g transform="translate(163.61725945094577 222.49920446944088) rotate(0 -20.471101523128993 24.34860264778689)" fill-rule="evenodd"><path d="M-0.31 1.78 L-58.37 1.16 L-58.02 -14.15 L-56.61 -26.34 L-55.61 -33.47 L-46.03 -40.94 L-38.06 -42.33 L-27.28 -45.17 L13.83 -49.38 L33.51 -45.48 L42.23 -41.33 L50.3 -33.71 L53.56 -27.22 L52.88 -20.06 L52.66 18.61 L51.07 31.83 L48.19 40.64 L42.71 46.83 L33.84 49.29 L24.08 53.45 L-29.9 52.95 L-37.97 56.88 L-45.86 60.8 L-49.47 67.93 L-55.43 75.12 L-56.21 94.82 L-54.55 97.42 L-70.58 94.25 L-79.56 91.14 L-84.4 90.18 L-91.1 82.49 L-91.51 76.21 L-95.33 49.15 L-92.06 28.63 L-88.94 20.69 L-83.55 12.09 L-76.08 9.53 L-63.34 7.95 L-1.22 8.7 L1.43 5.43 L1.2 1.39" stroke="none" stroke-width="0" fill="#7209b7" fill-rule="evenodd"></path><path d="M-1.02 -0.85 C-9.33 -0.95, -41.07 -1.07, -50.69 -1.57 C-60.31 -2.06, -57.87 0.39, -58.76 -3.82 C-59.65 -8.03, -57.81 -20.78, -56.01 -26.82 C-54.21 -32.86, -52.6 -36.6, -47.96 -40.07 C-43.31 -43.53, -35.94 -46.25, -28.14 -47.63 C-20.34 -49.01, -10.19 -48.53, -1.16 -48.34 C7.86 -48.16, 18.62 -47.6, 26 -46.5 C33.39 -45.39, 38.5 -44.9, 43.15 -41.7 C47.8 -38.51, 52.01 -34.89, 53.9 -27.32 C55.8 -19.76, 54.89 -6, 54.51 3.69 C54.13 13.39, 53.62 23.72, 51.62 30.83 C49.61 37.95, 47 42.91, 42.49 46.4 C37.99 49.89, 32.61 50.67, 24.59 51.76 C16.57 52.86, 3.22 52.82, -5.63 52.97 C-14.47 53.13, -21.55 51.57, -28.47 52.69 C-35.38 53.81, -42.92 55.86, -47.12 59.7 C-51.32 63.53, -52.38 70.67, -53.68 75.71 C-54.99 80.74, -54.59 86.43, -54.96 89.9 C-55.33 93.37, -52.96 95.68, -55.88 96.51 C-58.81 97.34, -67.53 96.25, -72.51 94.89 C-77.49 93.53, -82.1 91.82, -85.75 88.37 C-89.39 84.93, -92.64 80.82, -94.37 74.22 C-96.11 67.63, -96.19 56.61, -96.15 48.81 C-96.11 41, -96.26 33.14, -94.14 27.4 C-92.02 21.66, -88.31 17.5, -83.44 14.36 C-78.57 11.21, -73.77 9.56, -64.91 8.54 C-56.05 7.53, -39.87 8.6, -30.3 8.26 C-20.73 7.92, -12.57 6.69, -7.48 6.5 C-2.4 6.32, -1.17 8.42, 0.23 7.16 C1.62 5.9, 0.76 0.25, 0.91 -1.06 M0.64 1.32 C-7.76 1.42, -42.24 0.11, -51.74 -0.56 C-61.24 -1.22, -55.18 1.59, -56.36 -2.68 C-57.55 -6.94, -60 -20.01, -58.84 -26.15 C-57.68 -32.3, -54.19 -36.31, -49.42 -39.55 C-44.65 -42.79, -38.36 -44.46, -30.22 -45.59 C-22.08 -46.72, -9.88 -46.17, -0.59 -46.31 C8.7 -46.45, 18.45 -47.5, 25.51 -46.42 C32.57 -45.34, 37.42 -43.44, 41.76 -39.82 C46.11 -36.2, 49.32 -32.13, 51.56 -24.72 C53.8 -17.3, 55.44 -4.51, 55.2 4.67 C54.96 13.85, 52.16 23.49, 50.11 30.36 C48.07 37.22, 47.26 42.37, 42.94 45.88 C38.62 49.38, 32.34 50.24, 24.2 51.4 C16.07 52.56, 3.28 52.45, -5.85 52.84 C-14.98 53.23, -24.05 52.58, -30.58 53.76 C-37.11 54.94, -40.95 56.22, -45.02 59.92 C-49.08 63.62, -53.62 70.98, -54.97 75.95 C-56.31 80.91, -53.07 86.5, -53.08 89.7 C-53.09 92.9, -51.6 93.99, -55.04 95.17 C-58.48 96.35, -68.67 98.16, -73.72 96.79 C-78.77 95.42, -81.8 90.3, -85.33 86.95 C-88.86 83.6, -93.38 83.22, -94.92 76.67 C-96.45 70.12, -94.87 55.81, -94.56 47.64 C-94.26 39.47, -95.12 33.14, -93.08 27.64 C-91.04 22.13, -86.68 17.79, -82.31 14.63 C-77.95 11.46, -75.77 9.87, -66.89 8.63 C-58.01 7.4, -38.87 7.39, -29.05 7.22 C-19.22 7.06, -12.49 7.78, -7.93 7.63 C-3.37 7.48, -3.19 7.54, -1.7 6.31 C-0.21 5.07, 0.46 1.1, 1.01 0.21" stroke="#000000" stroke-width="1" fill="none"></path></g></g><g stroke-linecap="round" transform="translate(117.56413289578688 191.7684037048282) rotate(0 9.445469354594309 9.44546935459428)"><path d="M12.39 0.51 C14.52 0.87, 17.45 2.61, 18.65 4.46 C19.85 6.31, 20.17 9.49, 19.6 11.6 C19.03 13.71, 17.01 16.06, 15.24 17.12 C13.47 18.18, 10.95 17.89, 9 17.95 C7.04 18.01, 5.05 18.55, 3.51 17.47 C1.97 16.39, -0.03 13.53, -0.22 11.46 C-0.41 9.4, 1.12 6.81, 2.35 5.08 C3.58 3.35, 5.18 1.76, 7.15 1.1 C9.12 0.43, 12.69 0.74, 14.18 1.07 C15.67 1.4, 16.13 2.74, 16.12 3.1 M11.82 0.24 C13.49 0.93, 15.86 2.95, 16.93 4.84 C18 6.73, 18.42 9.52, 18.24 11.59 C18.06 13.66, 17.19 15.94, 15.84 17.28 C14.48 18.62, 12.2 19.79, 10.09 19.64 C7.99 19.48, 4.87 17.57, 3.23 16.34 C1.59 15.11, 0.65 14.2, 0.25 12.27 C-0.15 10.35, -0.27 6.62, 0.84 4.8 C1.95 2.97, 4.87 2.01, 6.9 1.31 C8.93 0.61, 11.89 0.69, 13.03 0.59 C14.16 0.49, 14.07 0.7, 13.71 0.73" stroke="none" stroke-width="0" fill="#ffffff"></path><path d="M5.13 0.73 C6.94 -0.23, 10.58 0.12, 12.47 0.71 C14.36 1.29, 15.5 2.45, 16.48 4.25 C17.46 6.05, 18.36 9.41, 18.36 11.51 C18.37 13.62, 18.02 15.49, 16.5 16.86 C14.98 18.24, 11.53 19.65, 9.24 19.76 C6.95 19.87, 4.25 18.93, 2.75 17.53 C1.24 16.13, 0.51 13.37, 0.21 11.36 C-0.08 9.35, -0.11 7.16, 0.98 5.44 C2.06 3.73, 5.82 2.02, 6.74 1.06 C7.66 0.1, 6.42 -0.49, 6.51 -0.29 M8.07 -0.21 C9.92 -0.58, 11.59 -0.97, 13.46 0.31 C15.32 1.6, 18.5 5.64, 19.24 7.52 C19.99 9.39, 18.77 9.88, 17.94 11.56 C17.1 13.24, 16.18 16.53, 14.24 17.58 C12.3 18.64, 8.35 18.36, 6.29 17.87 C4.24 17.38, 3.22 16.11, 1.94 14.65 C0.65 13.18, -1.47 10.81, -1.41 9.06 C-1.34 7.31, 0.65 5.45, 2.32 4.17 C3.98 2.89, 7.68 1.78, 8.58 1.37 C9.49 0.95, 8.04 1.9, 7.75 1.67" stroke="#000000" stroke-width="1" fill="none"></path></g><g stroke-linecap="round" transform="translate(191.37705812190302 342.79643986383167) rotate(0 10.086871016757755 10.086871016757755)"><path d="M5.64 1.85 C7.2 1.1, 10 0.85, 12.16 1.24 C14.32 1.63, 17.2 2.62, 18.57 4.21 C19.95 5.79, 20.78 8.54, 20.4 10.76 C20.02 12.98, 17.71 16.03, 16.3 17.54 C14.9 19.05, 13.86 19.52, 11.97 19.81 C10.08 20.11, 6.82 20.38, 4.98 19.32 C3.14 18.25, 1.52 15.76, 0.95 13.41 C0.37 11.05, 0.38 7.43, 1.55 5.18 C2.72 2.92, 6.33 0.72, 7.96 -0.12 C9.59 -0.97, 11.05 -0.21, 11.31 0.11 M11.61 -0.45 C13.83 -0.18, 16.56 1.31, 18.1 3.1 C19.64 4.9, 20.78 7.99, 20.84 10.32 C20.91 12.65, 19.87 15.51, 18.49 17.09 C17.11 18.66, 14.86 19.46, 12.54 19.76 C10.22 20.05, 6.38 19.98, 4.56 18.88 C2.74 17.77, 2.28 15.06, 1.62 13.15 C0.95 11.24, -0.14 9.32, 0.55 7.44 C1.24 5.55, 3.86 2.84, 5.76 1.84 C7.67 0.83, 10.94 1.88, 11.96 1.42 C12.98 0.95, 12.03 -0.68, 11.88 -0.95" stroke="none" stroke-width="0" fill="#ffffff"></path><path d="M8.69 0.29 C10.59 -0.16, 13.89 -0.43, 15.7 0.6 C17.52 1.64, 18.8 4.2, 19.57 6.52 C20.33 8.84, 21 12.55, 20.29 14.53 C19.57 16.5, 17.19 17.62, 15.29 18.36 C13.39 19.11, 10.97 19.34, 8.87 19 C6.78 18.65, 4.22 17.84, 2.72 16.28 C1.22 14.73, -0.17 11.73, -0.13 9.65 C-0.1 7.57, 1.3 5.46, 2.94 3.81 C4.57 2.17, 8.7 0.26, 9.67 -0.22 C10.64 -0.71, 8.71 0.72, 8.78 0.88 M7.36 -0.65 C9.35 -1.12, 11.28 0.81, 13.44 1.87 C15.61 2.93, 19.54 3.83, 20.36 5.72 C21.19 7.6, 19.22 11.28, 18.41 13.2 C17.61 15.11, 17.24 16.08, 15.54 17.21 C13.83 18.35, 10.41 20.27, 8.18 20.01 C5.94 19.75, 3.53 17.22, 2.15 15.67 C0.77 14.11, -0.23 12.54, -0.1 10.7 C0.03 8.87, 1.43 6.45, 2.94 4.66 C4.44 2.86, 7.91 0.87, 8.94 -0.05 C9.96 -0.96, 9.45 -1.07, 9.1 -0.82" stroke="#000000" stroke-width="1" fill="none"></path></g><g transform="translate(152.9999816894533 45.000030517578125) rotate(0 100.09999999999997 38.5)"><text x="0" y="54" font-family="Virgil, Segoe UI Emoji" font-size="61.60000000000001px" fill="#000000" text-anchor="start" style="white-space: pre;" direction="ltr">Python</text></g></svg>